<svg width="808" height="808" viewBox="0 0 808 808" fill="none" xmlns="http://www.w3.org/2000/svg">
<g clip-path="url(#clip0)" filter="url(#filter0_d)">
<rect width="800" height="800" transform="translate(4)" fill="white"/>
<g filter="url(#filter1_d)">
<rect x="-42.2236" y="-44.9072" width="150" height="556.682" transform="rotate(-43.4508 -42.2236 -44.9072)" fill="#E94040"/>
<rect x="-41.5168" y="-44.8881" width="149" height="555.682" transform="rotate(-43.4508 -41.5168 -44.8881)" stroke="white"/>
</g>
<g filter="url(#filter2_d)">
<rect x="709.496" y="-110" width="150" height="535.684" transform="rotate(46.9565 709.496 -110)" fill="#F11B1B"/>
<rect x="709.472" y="-109.293" width="149" height="534.684" transform="rotate(46.9565 709.472 -109.293)" stroke="white"/>
</g>
<g filter="url(#filter3_d)">
<rect x="94.0526" y="182" width="598" height="576" rx="288" transform="rotate(1 94.0526 182)" fill="#E5E4E2"/>
<rect x="94.0526" y="182" width="598" height="576" rx="288" transform="rotate(1 94.0526 182)" stroke="black"/>
</g>
<path d="M665.5 475.5C665.5 624.604 541.272 745.5 388 745.5C234.728 745.5 110.5 624.604 110.5 475.5C110.5 326.396 234.728 205.5 388 205.5C541.272 205.5 665.5 326.396 665.5 475.5Z" fill="#FBF6ED" stroke="#AD9E4D"/>
<path d="M336.655 525.561L336.655 669L269.576 669L269.576 282.961L417.257 282.961C460.386 282.961 494.588 294.185 519.865 316.633C545.318 339.082 558.044 368.777 558.044 405.719C558.044 443.545 545.583 472.976 520.66 494.01C495.914 515.044 461.181 525.561 416.461 525.561L336.655 525.561ZM336.655 471.738L417.257 471.738C441.119 471.738 459.325 466.17 471.875 455.035C484.425 443.722 490.7 427.46 490.7 406.25C490.7 385.392 484.336 368.777 471.61 356.404C458.883 343.854 441.384 337.402 419.113 337.049L336.655 337.049L336.655 471.738Z" fill="#E5E4E2"/>
</g>
<defs>
<filter id="filter0_d" x="0" y="0" width="808" height="808" filterUnits="userSpaceOnUse" color-interpolation-filters="sRGB">
<feFlood flood-opacity="0" result="BackgroundImageFix"/>
<feColorMatrix in="SourceAlpha" type="matrix" values="0 0 0 0 0 0 0 0 0 0 0 0 0 0 0 0 0 0 127 0" result="hardAlpha"/>
<feOffset dy="4"/>
<feGaussianBlur stdDeviation="2"/>
<feComposite in2="hardAlpha" operator="out"/>
<feColorMatrix type="matrix" values="0 0 0 0 0 0 0 0 0 0 0 0 0 0 0 0 0 0 0.25 0"/>
<feBlend mode="normal" in2="BackgroundImageFix" result="effect1_dropShadow"/>
<feBlend mode="normal" in="SourceGraphic" in2="effect1_dropShadow" result="shape"/>
</filter>
<filter id="filter1_d" x="-46.2236" y="-148.067" width="499.743" height="515.292" filterUnits="userSpaceOnUse" color-interpolation-filters="sRGB">
<feFlood flood-opacity="0" result="BackgroundImageFix"/>
<feColorMatrix in="SourceAlpha" type="matrix" values="0 0 0 0 0 0 0 0 0 0 0 0 0 0 0 0 0 0 127 0" result="hardAlpha"/>
<feOffset dy="4"/>
<feGaussianBlur stdDeviation="2"/>
<feComposite in2="hardAlpha" operator="out"/>
<feColorMatrix type="matrix" values="0 0 0 0 0 0 0 0 0 0 0 0 0 0 0 0 0 0 0.25 0"/>
<feBlend mode="normal" in2="BackgroundImageFix" result="effect1_dropShadow"/>
<feBlend mode="normal" in="SourceGraphic" in2="effect1_dropShadow" result="shape"/>
</filter>
<filter id="filter2_d" x="314" y="-110" width="501.879" height="483.258" filterUnits="userSpaceOnUse" color-interpolation-filters="sRGB">
<feFlood flood-opacity="0" result="BackgroundImageFix"/>
<feColorMatrix in="SourceAlpha" type="matrix" values="0 0 0 0 0 0 0 0 0 0 0 0 0 0 0 0 0 0 127 0" result="hardAlpha"/>
<feOffset dy="4"/>
<feGaussianBlur stdDeviation="2"/>
<feComposite in2="hardAlpha" operator="out"/>
<feColorMatrix type="matrix" values="0 0 0 0 0 0 0 0 0 0 0 0 0 0 0 0 0 0 0.25 0"/>
<feBlend mode="normal" in2="BackgroundImageFix" result="effect1_dropShadow"/>
<feBlend mode="normal" in="SourceGraphic" in2="effect1_dropShadow" result="shape"/>
</filter>
<filter id="filter3_d" x="80" y="182" width="615.961" height="594.349" filterUnits="userSpaceOnUse" color-interpolation-filters="sRGB">
<feFlood flood-opacity="0" result="BackgroundImageFix"/>
<feColorMatrix in="SourceAlpha" type="matrix" values="0 0 0 0 0 0 0 0 0 0 0 0 0 0 0 0 0 0 127 0" result="hardAlpha"/>
<feOffset dy="4"/>
<feGaussianBlur stdDeviation="2"/>
<feComposite in2="hardAlpha" operator="out"/>
<feColorMatrix type="matrix" values="0 0 0 0 0 0 0 0 0 0 0 0 0 0 0 0 0 0 0.25 0"/>
<feBlend mode="normal" in2="BackgroundImageFix" result="effect1_dropShadow"/>
<feBlend mode="normal" in="SourceGraphic" in2="effect1_dropShadow" result="shape"/>
</filter>
<clipPath id="clip0">
<rect width="800" height="800" fill="white" transform="translate(4)"/>
</clipPath>
</defs>
</svg>
